<?xml version="1.0" encoding="UTF-8"?>
<svg id="Layer_1" data-name="Layer 1" xmlns="http://www.w3.org/2000/svg" viewBox="0 0 300 500">
  <defs>
    <style>
      .cls-1, .cls-2, .cls-3 {
        font-family: Avenir-Medium, Avenir;
        font-weight: 500;
      }

      .cls-1, .cls-3 {
        font-size: 15px;
      }

      .cls-4 {
        letter-spacing: -.09em;
      }

      .cls-2 {
        font-size: 12px;
      }

      .cls-2, .cls-5 {
        fill: #333;
      }

      .cls-6 {
        letter-spacing: -.02em;
      }

      .cls-7 {
        letter-spacing: 0em;
      }

      .cls-8, .cls-3 {
        letter-spacing: -.02em;
      }

      .cls-9 {
        letter-spacing: -.02em;
      }

      .cls-10 {
        letter-spacing: -.05em;
      }

      .cls-11 {
        letter-spacing: -.02em;
      }

      .cls-12 {
        font-size: 5.5px;
      }

      .cls-12, .cls-13 {
        fill: #000;
        font-family: Helvetica, Helvetica;
        isolation: isolate;
      }

      .cls-13 {
        font-size: 5.5px;
      }

      .cls-14 {
        letter-spacing: -.04em;
      }

      .cls-15 {
        fill: none;
        stroke: #000;
      }

      .cls-16 {
        fill: #231f20;
      }

      .cls-16, .cls-17 {
        font-family: Avenir-Black, Avenir;
        font-size: 18px;
        font-weight: 800;
      }

      .cls-18 {
        letter-spacing: -.02em;
      }

      .cls-19 {
        fill: #86e29b;
        stroke-width: 0px;
      }
    </style>
  </defs>
  <rect id="undefined_-_Value" data-name="undefined - Value" class="cls-19" x="140.88" y="43.91" width="20.26" height="226.4" transform="translate(-6.25 307.95) rotate(-89.94)"/>
  <rect id="undefined_-_Value-2" data-name="undefined - Value" class="cls-19" x="46.89" y="165.15" width="20.26" height="38.49" transform="translate(-127.43 241.22) rotate(-89.94)"/>
  <rect id="undefined_-_Value-3" data-name="undefined - Value" class="cls-19" x="41.6" y="197.79" width="20.26" height="27.96" transform="translate(-160.1 263.29) rotate(-89.94)"/>
  <rect id="undefined_-_Value-4" data-name="undefined - Value" class="cls-19" x="33.23" y="260.88" width="20.26" height="11.33" transform="translate(-223.23 309.63) rotate(-89.94)"/>
  <rect id="undefined_-_Value-5" data-name="undefined - Value" class="cls-19" x="30.73" y="290.74" width="20.26" height="6.4" transform="translate(-253.11 334.5) rotate(-89.94)"/>
  <rect id="undefined_-_Value-6" data-name="undefined - Value" class="cls-19" x="30.28" y="318.55" width="20.26" height="5.55" transform="translate(-280.95 361.41) rotate(-89.94)"/>
  <polyline id="undefined_-_Value-7" data-name="undefined - Value" class="cls-19" points="37.6 358.84 37.62 338.58 40.74 338.58 40.72 358.85"/>
  <rect id="undefined_-_Value-8" data-name="undefined - Value" class="cls-19" x="35.71" y="231.04" width="20.26" height="16.24" transform="translate(-193.36 284.76) rotate(-89.94)"/>
  <path class="cls-15" d="M37.82,140.6l-.23,224.49"/>
  <g>
    <line class="cls-15" x1="37.81" y1="156.98" x2="35.17" y2="156.98"/>
    <text class="cls-12" transform="translate(7.04 159.1) rotate(.06) scale(.96 1)"><tspan class="cls-14" x="0" y="0">W</tspan><tspan x="4.99" y="0">ashington</tspan></text>
  </g>
  <g>
    <line class="cls-15" x1="37.78" y1="184.37" x2="35.14" y2="184.37"/>
    <text class="cls-12" transform="translate(13.6 186.44) rotate(.06) scale(.96 1)"><tspan x="0" y="0">Michigan</tspan></text>
  </g>
  <g>
    <line class="cls-15" x1="37.75" y1="211.76" x2="35.11" y2="211.76"/>
    <text class="cls-12" transform="translate(12.43 213.78) rotate(.06) scale(.96 1)"><tspan x="0" y="0">New</tspan><tspan class="cls-18" x="11" y="0"> </tspan><tspan class="cls-4" x="12.43" y="0">Y</tspan><tspan x="15.59" y="0">ork</tspan></text>
  </g>
  <g>
    <line class="cls-15" x1="37.72" y1="239.15" x2="35.08" y2="239.15"/>
    <text class="cls-12" transform="translate(21.54 241.13) rotate(.06) scale(.96 1)"><tspan x="0" y="0">Other</tspan></text>
  </g>
  <g>
    <line class="cls-15" x1="37.69" y1="266.54" x2="35.05" y2="266.54"/>
    <text class="cls-12" transform="translate(3.32 268.46) rotate(.06) scale(.96 1)"><tspan x="0" y="0">Pennsylvania</tspan></text>
  </g>
  <g>
    <line class="cls-15" x1="37.67" y1="293.93" x2="35.02" y2="293.93"/>
    <text class="cls-12" transform="translate(12.43 295.81) rotate(.06) scale(.96 1)"><tspan x="0" y="0">California</tspan></text>
  </g>
  <g>
    <line class="cls-15" x1="37.64" y1="321.32" x2="35" y2="321.32"/>
    <text class="cls-12" transform="translate(17.22 323.15) rotate(.06) scale(.96 1)"><tspan class="cls-6" x="0" y="0">V</tspan><tspan x="3.57" y="0">irginia</tspan></text>
  </g>
  <g>
    <line class="cls-15" x1="37.61" y1="348.71" x2="34.97" y2="348.71"/>
    <text class="cls-12" transform="translate(17.13 350.49) rotate(.06) scale(.96 1)"><tspan x="0" y="0">Oregon</tspan></text>
  </g>
  <g id="yAxis">
    <path class="cls-15" d="M37.82,140.6l246.61.27"/>
    <g>
      <line class="cls-15" x1="37.82" y1="140.6" x2="37.83" y2="137.85"/>
      <text class="cls-13" transform="translate(37.94 131.18) rotate(-180) scale(.96 1)"><tspan x="0" y="0">0</tspan></text>
    </g>
    <line class="cls-15" x1="60.24" y1="140.63" x2="60.25" y2="137.88"/>
    <line class="cls-15" x1="82.66" y1="140.65" x2="82.67" y2="137.9"/>
    <line class="cls-15" x1="105.08" y1="140.68" x2="105.08" y2="137.93"/>
    <line class="cls-15" x1="127.5" y1="140.7" x2="127.5" y2="137.95"/>
    <line class="cls-15" x1="149.92" y1="140.73" x2="149.92" y2="137.98"/>
    <line class="cls-15" x1="172.34" y1="140.75" x2="172.34" y2="138"/>
    <line class="cls-15" x1="194.76" y1="140.78" x2="194.76" y2="138.03"/>
    <line class="cls-15" x1="217.18" y1="140.8" x2="217.18" y2="138.05"/>
    <line class="cls-15" x1="239.6" y1="140.83" x2="239.6" y2="138.08"/>
    <line class="cls-15" x1="262.02" y1="140.85" x2="262.02" y2="138.1"/>
    <line class="cls-15" x1="284.43" y1="140.88" x2="284.44" y2="138.13"/>
  </g>
  <text class="cls-13" transform="translate(55.28 134.73) scale(.96 1)"><tspan x="0" y="0">$2M</tspan></text>
  <text class="cls-13" transform="translate(77.72 134.73) scale(.96 1)"><tspan x="0" y="0">$4M</tspan></text>
  <text class="cls-13" transform="translate(100.16 134.73) scale(.96 1)"><tspan x="0" y="0">$6M</tspan></text>
  <text class="cls-13" transform="translate(122.59 134.73) scale(.96 1)"><tspan x="0" y="0">$8M</tspan></text>
  <text class="cls-13" transform="translate(145.4 134.73) scale(.96 1)"><tspan x="0" y="0">$1B</tspan></text>
  <text class="cls-13" transform="translate(166 134.73) scale(.96 1)"><tspan x="0" y="0">$1.2B</tspan></text>
  <text class="cls-13" transform="translate(188.44 134.73) scale(.96 1)"><tspan x="0" y="0">$1.4B</tspan></text>
  <text class="cls-13" transform="translate(210.88 134.73) scale(.96 1)"><tspan x="0" y="0">$1.6B</tspan></text>
  <text class="cls-13" transform="translate(233.31 134.73) scale(.96 1)"><tspan x="0" y="0">$1.8B</tspan></text>
  <text class="cls-13" transform="translate(278.19 134.73) scale(.96 1)"><tspan x="0" y="0">$2.2B</tspan></text>
  <text class="cls-13" transform="translate(257.59 134.73) scale(.96 1)"><tspan x="0" y="0">$2B</tspan></text>
  <text class="cls-16" transform="translate(4.82 19.13)"><tspan x="0" y="0">U.S. Apple P</tspan><tspan class="cls-11" x="107.35" y="0">r</tspan><tspan x="114.35" y="0" xml:space="preserve">oduction  </tspan></text>
  <text class="cls-5" transform="translate(2.82 56.02)"><tspan class="cls-1"><tspan class="cls-10" x="0" y="0">W</tspan><tspan x="13.72" y="0">ashington state is the top apple </tspan></tspan><tspan class="cls-1"><tspan x="0" y="20">p</tspan><tspan class="cls-8" x="9.17" y="20">r</tspan><tspan class="cls-7" x="14.45" y="20">oducer in the U.S. with their c</tspan><tspan class="cls-8" x="215.89" y="20">r</tspan><tspan class="cls-7" x="221.17" y="20">ops valued</tspan></tspan><tspan class="cls-1" x="0" y="40">at mo</tspan><tspan class="cls-3" x="39.19" y="40">r</tspan><tspan class="cls-1" x="44.47" y="40">e than $2B for the 2022/23 season.</tspan><tspan class="cls-17" x="282.4" y="40"> </tspan></text>
  <text class="cls-2" transform="translate(37.59 385.56) scale(.96 1)"><tspan x="0" y="0">Sou</tspan><tspan class="cls-9" x="20.47" y="0">r</tspan><tspan x="24.7" y="0">ce: USApple and U.S. Department of </tspan><tspan x="0" y="9.16">Agricultu</tspan><tspan class="cls-9" x="49.55" y="9.16">r</tspan><tspan x="53.77" y="9.16">e</tspan></text>
  <text class="cls-2" transform="translate(37.69 412.35) scale(.96 1)"><tspan x="0" y="0">By Diana Escamilla Fuentes</tspan></text>
</svg>